<?xml version="1.0" encoding="UTF-8"?>
<svg xmlns="http://www.w3.org/2000/svg" version="1.1" width="300" height="300" viewBox="0 0 300 300"><rect x="0" y="0" width="300" height="300" fill="#ffffff"/><g transform="scale(12)"><g transform="translate(0,0)"><path fill-rule="evenodd" d="M8 0L8 4L10 4L10 3L11 3L11 4L12 4L12 2L11 2L11 0ZM12 0L12 1L13 1L13 2L15 2L15 1L16 1L16 0L15 0L15 1L13 1L13 0ZM9 2L9 3L10 3L10 2ZM16 2L16 3L17 3L17 2ZM13 3L13 5L11 5L11 6L10 6L10 7L9 7L9 5L8 5L8 7L9 7L9 8L10 8L10 7L11 7L11 6L12 6L12 8L11 8L11 9L7 9L7 8L4 8L4 9L3 9L3 10L2 10L2 8L0 8L0 10L1 10L1 12L0 12L0 14L2 14L2 16L0 16L0 17L3 17L3 16L5 16L5 15L7 15L7 16L6 16L6 17L7 17L7 16L8 16L8 18L9 18L9 15L11 15L11 14L9 14L9 11L7 11L7 10L11 10L11 11L10 11L10 13L11 13L11 12L12 12L12 13L13 13L13 14L14 14L14 13L15 13L15 16L14 16L14 18L13 18L13 17L12 17L12 16L13 16L13 15L12 15L12 16L11 16L11 17L12 17L12 18L11 18L11 20L9 20L9 19L8 19L8 21L9 21L9 22L10 22L10 24L11 24L11 25L15 25L15 24L16 24L16 23L15 23L15 24L13 24L13 23L14 23L14 21L15 21L15 20L16 20L16 22L17 22L17 21L18 21L18 23L17 23L17 24L18 24L18 25L19 25L19 24L22 24L22 25L25 25L25 24L24 24L24 22L25 22L25 19L24 19L24 20L23 20L23 19L22 19L22 18L23 18L23 16L24 16L24 15L23 15L23 14L24 14L24 13L25 13L25 12L24 12L24 11L23 11L23 10L24 10L24 9L25 9L25 8L21 8L21 9L20 9L20 8L19 8L19 10L20 10L20 11L22 11L22 12L21 12L21 13L19 13L19 11L18 11L18 13L19 13L19 14L18 14L18 15L17 15L17 14L16 14L16 12L14 12L14 13L13 13L13 12L12 12L12 11L13 11L13 10L14 10L14 9L15 9L15 11L17 11L17 10L18 10L18 9L17 9L17 5L16 5L16 4L15 4L15 5L14 5L14 3ZM15 5L15 7L14 7L14 6L13 6L13 8L12 8L12 9L11 9L11 10L12 10L12 9L14 9L14 8L15 8L15 9L16 9L16 10L17 10L17 9L16 9L16 8L15 8L15 7L16 7L16 5ZM4 9L4 10L3 10L3 11L4 11L4 12L1 12L1 13L3 13L3 14L4 14L4 15L5 15L5 14L4 14L4 13L6 13L6 14L8 14L8 12L7 12L7 11L4 11L4 10L5 10L5 9ZM6 9L6 10L7 10L7 9ZM22 9L22 10L23 10L23 9ZM6 12L6 13L7 13L7 12ZM21 13L21 14L20 14L20 15L19 15L19 16L21 16L21 14L23 14L23 13ZM15 16L15 17L16 17L16 16ZM17 17L17 20L20 20L20 17ZM21 17L21 18L22 18L22 17ZM15 18L15 19L16 19L16 18ZM18 18L18 19L19 19L19 18ZM12 19L12 20L11 20L11 24L12 24L12 23L13 23L13 21L14 21L14 19ZM12 20L12 21L13 21L13 20ZM21 20L21 21L19 21L19 23L18 23L18 24L19 24L19 23L23 23L23 22L21 22L21 21L22 21L22 20ZM8 23L8 25L9 25L9 23ZM0 0L7 0L7 7L0 7ZM1 1L1 6L6 6L6 1ZM2 2L5 2L5 5L2 5ZM18 0L25 0L25 7L18 7ZM19 1L19 6L24 6L24 1ZM20 2L23 2L23 5L20 5ZM0 18L7 18L7 25L0 25ZM1 19L1 24L6 24L6 19ZM2 20L5 20L5 23L2 23Z" fill="#000000"/></g></g></svg>
